HIERARCHY
ROOT Hips
{
 OFFSET 0.000000 0.000000 0.000000
 CHANNELS 6 Xposition Yposition Zposition Yrotation Xrotation Zrotation
 JOINT Chest
 {
  OFFSET 0.000000 9.588913 -0.003946
  CHANNELS 3 Yrotation Xrotation Zrotation
  JOINT Chest2
  {
   OFFSET 0.000000 9.541882 0.008053
   CHANNELS 3 Yrotation Xrotation Zrotation
   JOINT Chest3
   {
    OFFSET 0.000000 9.501360 0.000000
    CHANNELS 3 Yrotation Xrotation Zrotation
    JOINT Chest4
    {
     OFFSET 0.000000 9.491660 0.000000
     CHANNELS 3 Yrotation Xrotation Zrotation
     JOINT Neck
     {
      OFFSET 0.000000 14.331917 0.000000
      CHANNELS 3 Yrotation Xrotation Zrotation
      JOINT Head
      {
       OFFSET 0.000000 8.884799 0.017034
       CHANNELS 3 Yrotation Xrotation Zrotation
       End Site
       {
        OFFSET 0.000000 16.896195 0.008993
       }
      }
     }
     JOINT RightCollar
     {
      OFFSET -2.923010 9.499495 0.000000
      CHANNELS 3 Yrotation Xrotation Zrotation
      JOINT RightShoulder
      {
       OFFSET -13.795216 0.000000 0.000000
       CHANNELS 3 Yrotation Xrotation Zrotation
       JOINT RightElbow
       {
        OFFSET -30.272209 0.000000 0.000000
        CHANNELS 3 Yrotation Xrotation Zrotation
        JOINT RightWrist
        {
         OFFSET -24.478199 0.000000 0.000000
         CHANNELS 3 Yrotation Xrotation Zrotation
         End Site
         {
          OFFSET -18.090752 0.000000 0.000000
         }
        }
       }
      }
     }
     JOINT LeftCollar
     {
      OFFSET 2.923010 9.499495 0.000000
      CHANNELS 3 Yrotation Xrotation Zrotation
      JOINT LeftShoulder
      {
       OFFSET 13.795216 0.000000 0.000000
       CHANNELS 3 Yrotation Xrotation Zrotation
       JOINT LeftElbow
       {
        OFFSET 30.272209 0.000000 0.000000
        CHANNELS 3 Yrotation Xrotation Zrotation
        JOINT LeftWrist
        {
         OFFSET 24.478199 0.000000 0.000000
         CHANNELS 3 Yrotation Xrotation Zrotation
         End Site
         {
          OFFSET 18.090752 0.000000 0.000000
         }
        }
       }
      }
     }
    }
   }
  }
 }
 JOINT RightHip
 {
  OFFSET -7.826875 0.019532 0.001973
  CHANNELS 3 Yrotation Xrotation Zrotation
  JOINT RightKnee
  {
   OFFSET 0.000000 -40.546152 -0.001885
   CHANNELS 3 Yrotation Xrotation Zrotation
   JOINT RightAnkle
   {
    OFFSET 0.000000 -39.417092 -0.003189
    CHANNELS 3 Yrotation Xrotation Zrotation
    JOINT RightToe
    {
     OFFSET 0.000000 -7.579396 17.243563
     CHANNELS 3 Yrotation Xrotation Zrotation
     End Site
     {
      OFFSET 0.000000 -1.500329 6.694466
     }
    }
   }
  }
 }
 JOINT LeftHip
 {
  OFFSET 7.826875 0.019532 0.001973
  CHANNELS 3 Yrotation Xrotation Zrotation
  JOINT LeftKnee
  {
   OFFSET 0.000000 -40.546152 -0.001885
   CHANNELS 3 Yrotation Xrotation Zrotation
   JOINT LeftAnkle
   {
    OFFSET 0.000000 -39.417092 -0.003189
    CHANNELS 3 Yrotation Xrotation Zrotation
    JOINT LeftToe
    {
     OFFSET 0.000000 -7.579396 17.243563
     CHANNELS 3 Yrotation Xrotation Zrotation
     End Site
     {
      OFFSET 0.000000 -1.500329 6.694466
     }
    }
   }
  }
 }
}
MOTION
Frames: 13
Frame Time: 0.008333
0.000000 87.345680 0.000000 0.000000 -5.767889 0.000000 0.000000 11.653876 0.000000 0.000000 -5.885988 0.000000 0.000000 -0.000000 0.000000 0.000000 -0.000000 0.000000 0.000000 12.528808 0.000000 0.000000 0.711711 0.000000 0.000000 -0.000000 0.000000 0.000000 -0.000000 0.000000 2.309063 -0.000000 0.000000 -2.309063 -0.000000 -0.000000 0.000000 -0.000000 0.000000 0.000000 0.000000 0.000000 -2.309063 0.000000 0.000000 2.309063 -0.000000 0.000000 0.000000 8.520374 0.000000 0.000000 1.905768 0.000000 -0.000000 -4.658254 0.000000 0.000000 -0.000000 0.000000 0.000000 8.520374 0.000000 0.000000 1.905768 0.000000 -0.000000 -4.658254 0.000000 0.000000 -0.000000 0.000000
-12.805263 89.224437 -0.960765 -139.602080 -9.015370 -0.349658 -0.161393 4.279148 0.798391 -0.110073 2.455900 0.457367 -0.134555 3.070006 0.571102 -0.110073 2.455900 0.457367 -0.537263 19.257876 -1.113328 -0.315377 -5.382353 -1.056203 -1.004028 -0.226701 -5.483896 5.416551 -2.712062 92.212896 4.439271 2.938991 -0.353520 0.785505 0.501431 -1.756327 2.376537 -2.960192 -2.184787 2.686777 0.700155 -86.560082 -1.045631 6.529111 0.175077 -0.699988 -3.860253 0.808712 2.755203 3.906110 -0.237352 4.990559 9.798103 0.899381 2.355752 -5.711660 2.118215 -0.060121 0.242549 -0.014119 9.265574 6.683349 4.464652 1.039708 7.798552 1.036645 -0.105461 -6.903798 -4.400034 -0.060831 -0.123361 -0.209399
-12.735367 89.190299 -1.058519 -139.700053 -9.090574 -0.372438 -0.135289 4.298040 0.801180 -0.096152 2.464166 0.444277 -0.117228 3.080318 0.554828 -0.096152 2.464166 0.444277 -0.518577 19.241046 -1.110552 -0.296193 -5.401332 -1.057424 -1.008243 -0.262408 -5.467362 5.458119 -2.759514 92.237182 4.502534 2.953622 -0.315889 0.783333 0.496028 -1.745697 2.367915 -2.941659 -2.142027 2.786197 0.881873 -86.589161 -1.140799 6.517881 0.192325 -0.600239 -3.795145 0.669091 2.842911 4.236902 -0.086604 5.021633 9.289428 0.911317 2.308492 -5.524174 1.967385 -0.041564 0.256052 0.004325 9.310555 6.462398 4.500337 1.090769 8.425639 1.236822 -0.091397 -7.246029 -4.539506 -0.051549 -0.120631 -0.209024
-12.656455 89.149314 -1.168515 -139.785561 -9.180203 -0.388658 -0.109793 4.321796 0.797189 -0.081846 2.474263 0.428902 -0.099433 3.092919 0.535700 -0.081846 2.474263 0.428902 -0.506833 19.222257 -1.103193 -0.285396 -5.422541 -1.052202 -1.022888 -0.291819 -5.434669 5.486896 -2.803170 92.246453 4.592362 2.986009 -0.260902 0.786055 0.491902 -1.738809 2.361067 -2.923421 -2.106973 2.860338 1.050595 -86.599944 -1.232957 6.497535 0.212052 -0.498541 -3.732826 0.528562 2.929582 4.588579 0.062632 5.060684 8.776551 0.941304 2.251413 -5.340318 1.792353 -0.030641 0.274191 0.021536 9.351041 6.222263 4.538823 1.136312 9.120970 1.443046 -0.071383 -7.624687 -4.688640 -0.046188 -0.116673 -0.210814
-12.569410 89.102724 -1.286272 -139.858483 -9.274622 -0.406697 -0.084778 4.346754 0.793818 -0.067382 2.484342 0.412739 -0.081446 3.105498 0.515588 -0.067382 2.484342 0.412739 -0.501811 19.201440 -1.092141 -0.282549 -5.446046 -1.041531 -1.041805 -0.313985 -5.390464 5.503147 -2.842414 92.242020 4.704760 3.037200 -0.194032 0.790978 0.487650 -1.738199 2.358323 -2.903518 -2.080389 2.916899 1.194772 -86.593589 -1.311578 6.474814 0.232000 -0.401920 -3.676756 0.400526 3.031057 4.948790 0.213877 5.109476 8.260958 0.988123 2.170888 -5.161001 1.602786 -0.025109 0.298809 0.036773 9.382096 5.947417 4.586610 1.173376 9.891247 1.648022 -0.038114 -8.038572 -4.841199 -0.043369 -0.114152 -0.214969
-12.475031 89.052144 -1.407596 -139.917732 -9.363452 -0.433372 -0.060263 4.369517 0.797774 -0.052836 2.492736 0.396486 -0.063361 3.115972 0.495365 -0.052836 2.492736 0.396486 -0.503645 19.177536 -1.077589 -0.287748 -5.473030 -1.025582 -1.062501 -0.327875 -5.335830 5.507502 -2.878239 92.222844 4.834578 3.101732 -0.118226 0.799764 0.483136 -1.744551 2.359947 -2.879040 -2.064103 2.962890 1.305478 -86.571478 -1.368558 6.454214 0.255268 -0.313322 -3.628659 0.290805 3.155868 5.303422 0.370847 5.162372 7.746275 1.047194 2.061263 -4.989128 1.407358 -0.022594 0.333368 0.049847 9.397072 5.621365 4.646740 1.198997 10.744011 1.848469 0.015197 -8.486024 -4.995495 -0.041470 -0.116185 -0.220047
-12.378621 89.000845 -1.537404 -140.006345 -9.493450 -0.474383 0.007001 4.440526 0.820898 -0.037782 2.498473 0.380073 -0.044645 3.123126 0.474947 -0.037782 2.498473 0.380073 -0.511779 19.150100 -1.059726 -0.300355 -5.503983 -1.004683 -1.085319 -0.335348 -5.271869 5.499764 -2.909610 92.193986 4.976499 3.175206 -0.037042 0.811650 0.480291 -1.755177 2.367165 -2.847888 -2.055847 3.013180 1.380259 -86.536204 -1.400478 6.447330 0.282642 -0.233997 -3.590450 0.202655 3.352002 5.693922 0.549018 5.208947 7.246871 1.113902 1.926334 -4.860780 1.214420 -0.022753 0.404034 0.057460 9.438242 5.275846 4.722642 1.217586 11.736423 2.051413 0.133093 -8.986597 -5.128594 -0.089064 -0.144150 -0.246417
-12.273481 88.948206 -1.661724 -140.056292 -9.572889 -0.527029 0.047731 4.470607 0.850332 -0.021989 2.501260 0.363740 -0.025008 3.126593 0.454633 -0.021989 2.501260 0.363740 -0.525852 19.120624 -1.040764 -0.319488 -5.537195 -0.981267 -1.109204 -0.342100 -5.204647 5.479194 -2.934627 92.165491 5.123315 3.253774 0.043769 0.825175 0.479246 -1.768279 2.379439 -2.811151 -2.051573 3.076798 1.424329 -86.496581 -1.409398 6.455831 0.314321 -0.168379 -3.562828 0.141597 3.553077 6.026365 0.727120 5.236981 6.752753 1.185288 1.769500 -4.728105 1.031680 -0.021373 0.475317 0.059073 9.430327 4.840355 4.815672 1.225945 12.777837 2.237064 0.229320 -9.505378 -5.279414 -0.095933 -0.165171 -0.254819
-12.163099 88.897467 -1.789074 -140.107357 -9.652429 -0.604186 0.102400 4.510399 0.905630 -0.005152 2.500726 0.348334 -0.004062 3.125909 0.435486 -0.005152 2.500727 0.348334 -0.545202 19.091155 -1.022566 -0.344026 -5.570351 -0.957466 -1.137709 -0.352230 -5.139536 5.452304 -2.950222 92.143525 5.267177 3.329299 0.118836 0.841275 0.478560 -1.782403 2.390845 -2.769866 -2.049029 3.157256 1.444188 -86.463493 -1.395944 6.471555 0.356753 -0.123639 -3.544156 0.109160 3.797857 6.350040 0.929593 5.239367 6.273411 1.262079 1.601333 -4.639162 0.853578 -0.019705 0.584362 0.056695 9.399904 4.357452 4.935571 1.239574 13.898838 2.415628 0.361293 -10.024501 -5.428074 -0.116026 -0.215615 -0.268206
-12.049587 88.849612 -1.912523 -140.141702 -9.703528 -0.672071 0.150170 4.530835 0.950372 0.013013 2.496590 0.334737 0.018553 3.120723 0.418609 0.013013 2.496591 0.334737 -0.569815 19.063131 -1.006468 -0.373650 -5.601817 -0.934709 -1.173327 -0.366193 -5.082139 5.425824 -2.954334 92.130143 5.404786 3.393047 0.188249 0.859948 0.478094 -1.797427 2.396814 -2.727415 -2.043221 3.257331 1.444799 -86.447711 -1.358073 6.490228 0.411328 -0.105525 -3.533719 0.104878 4.051413 6.640189 1.117043 5.221462 5.795011 1.336722 1.425436 -4.531908 0.683128 -0.014995 0.680327 0.054305 9.301824 3.819247 5.030190 1.278195 15.080988 2.601673 0.513589 -10.575133 -5.594109 -0.121079 -0.256084 -0.271497
-11.934025 88.807564 -2.039436 -140.185037 -9.760178 -0.748797 0.217410 4.565372 1.007912 0.033210 2.489425 0.323638 0.043723 3.111750 0.404869 0.033210 2.489426 0.323638 -0.599564 19.036312 -0.993421 -0.408010 -5.631853 -0.914024 -1.212088 -0.384361 -5.034512 5.398716 -2.946919 92.123424 5.536655 3.441048 0.255086 0.877820 0.474392 -1.813018 2.399295 -2.687654 -2.033532 3.370078 1.432505 -86.453462 -1.297405 6.504811 0.475374 -0.108862 -3.536413 0.123927 4.327417 6.928802 1.319906 5.191782 5.328458 1.401783 1.251298 -4.451777 0.522027 -0.010174 0.797369 0.049899 9.138791 3.271984 5.116624 1.364811 16.296644 2.816108 0.708687 -11.114462 -5.788535 -0.130855 -0.309052 -0.271212
-11.817883 88.772485 -2.163684 -140.217671 -9.794683 -0.808095 0.277960 4.581338 1.049119 0.055746 2.481313 0.315073 0.071834 3.101591 0.394311 0.055746 2.481314 0.315073 -0.631282 19.010220 -0.984344 -0.443547 -5.660994 -0.897104 -1.248004 -0.405733 -4.996735 5.372221 -2.928409 92.120991 5.661240 3.469592 0.316933 0.893053 0.467723 -1.826002 2.400433 -2.651319 -2.020446 3.485019 1.410753 -86.479309 -1.217060 6.501937 0.546409 -0.126038 -3.555472 0.157817 4.589029 7.189785 1.507496 5.150193 4.866324 1.446635 1.088630 -4.336218 0.378078 -0.002721 0.881085 0.043825 8.880238 2.713361 5.155105 1.512828 17.515700 3.072308 0.909726 -11.668368 -6.029308 -0.105095 -0.337007 -0.250491
-11.703594 88.747138 -2.290261 -140.250292 -9.835898 -0.858911 0.340312 4.598481 1.085665 0.079498 2.475935 0.308850 0.101484 3.094849 0.386691 0.079498 2.475936 0.308850 -0.660991 18.983343 -0.979898 -0.475900 -5.690944 -0.885540 -1.276145 -0.431244 -4.967114 5.355746 -2.900493 92.116560 5.775464 3.475580 0.371836 0.905708 0.460008 -1.834737 2.402220 -2.618937 -2.004622 3.588137 1.379903 -86.525841 -1.121030 6.465081 0.621969 -0.151484 -3.584350 0.199547 4.837641 7.456084 1.693646 5.095631 4.407486 1.470598 0.948658 -4.199289 0.248914 0.004853 0.942481 0.036120 8.548064 2.183235 5.161940 1.708568 18.714677 3.358944 1.126640 -12.217706 -6.284473 -0.051156 -0.346612 -0.229289
